<?xml version="1.0" encoding="UTF-8"?>
<svg width="633px" height="576px" viewBox="0 0 633 576" version="1.1" xmlns="http://www.w3.org/2000/svg" xmlns:xlink="http://www.w3.org/1999/xlink">
    <!-- Generator: Sketch 58 (84663) - https://sketch.com -->
    <title>img about 1024 copy</title>
    <desc>Created with Sketch.</desc>
    <defs>
        <path d="M220.394843,2.27373675e-13 C157.671902,12.1003496 111.005236,36.5005927 80.3948428,73.2007293 C12.7104322,154.350524 -18.002528,229.616214 10.7948428,306.000729 C38.397472,379.216214 115.213673,418.467897 193.194843,372.400729 C305.594843,306.000729 326.094411,387.798395 379.994843,332.400729 C434.094411,276.798395 426.971558,227.018927 411.994843,142.000729 C400.371558,76.0189268 381.374357,70.8510997 326.794843,30.4007293 C299.314519,10.0343095 263.847852,-0.0992668987 220.394843,2.27373675e-13 Z" id="path-1"></path>
    </defs>
    <g id="img-about-1024-copy" stroke="none" stroke-width="1" fill="none" fill-rule="evenodd">
        <g id="foto+patterns-about" transform="translate(86.000000, 37.000000)">
            <path d="M292.361052,262.684533 C253.917825,262.684533 215.584205,280.966466 215.584205,310.826647 C215.584205,347.52905 163.939226,383.744917 220.352954,399.007746 C283.777305,416.167311 300.502372,466.641335 364.36915,471.459244 C397.614394,473.96716 431.15459,455.536516 464.989737,416.167311 C504.837151,400.489412 521.209853,384.124271 514.107844,367.071888 C502.824616,339.98013 475.069792,325.352043 421.117254,310.826647 C405.74209,306.687261 388.574597,306.687261 369.614773,310.826647 C343.826997,278.731904 318.075757,262.684533 292.361052,262.684533 Z" id="Path-6" fill="#E5BBA5" transform="translate(354.850253, 367.184533) rotate(-30.000000) translate(-354.850253, -367.184533) "></path>
            <g id="foto">
                <mask id="mask-2" fill="white">
                    <use xlink:href="#path-1"></use>
                </mask>
                <use id="Path-5" fill="#D8D8D8" xlink:href="#path-1"></use>
            </g>
        </g>
    </g>
</svg>