<?xml version="1.0" encoding="UTF-8"?>
<svg width="1440px" height="810px" viewBox="0 0 1440 810" version="1.1" xmlns="http://www.w3.org/2000/svg" xmlns:xlink="http://www.w3.org/1999/xlink">
    <!-- Generator: Sketch 58 (84663) - https://sketch.com -->
    <title>img header 1440</title>
    <desc>Created with Sketch.</desc>
    <defs>
        <path d="M279.008591,103.875404 C246.808634,145.140911 260.404809,230.149635 248.183073,274.610338 C238.52314,309.751621 216.603073,345.760376 224.18711,378.771041 C234.290309,422.74674 248.641007,445.77733 290.116642,430.019642 C315.483677,420.382036 309.871251,370.656973 320.074821,296.332828 C323.82902,268.986746 331.715747,224.802734 339.563096,192.768944 C345.259712,169.514696 350.633306,144.021246 347.876907,125.065563 C344.072385,98.9019715 337.289118,88.2843452 327.597572,81.908754 C316.508771,74.6139769 301.403569,75.1753616 279.008591,103.875404 Z" id="path-1"></path>
    </defs>
    <g id="img-header-1440" stroke="none" stroke-width="1" fill="none" fill-rule="evenodd">
        <g id="patterns" transform="translate(91.000000, -109.000000)">
            <path d="M766.412695,578.620022 C918.312695,671.020022 990.01598,525.396439 1092.29069,486.220022 C1194.56541,447.043606 1238.37032,495.004823 1265.89069,377.720022 C1274.55925,340.776839 1309.5125,308.49949 1313.11269,272.020022 C1320.94216,192.686862 1288.6619,118.107751 1278.11269,106.120022 C1250.28355,74.4959936 1208.75022,51.8626603 1153.51269,38.2200224 C1008.70639,-9.76650443 906.273056,-12.5665044 846.212695,29.8200224 C786.152334,72.2065493 763.052334,157.606549 776.912695,286.020022 C668.646028,419.486689 665.146028,517.020022 766.412695,578.620022 Z" id="Path" fill="#E5BBA5"></path>
            <path d="M853.333578,715.878133 C873.826983,679.918008 919.79365,676.418008 991.233578,705.378133 C1059.17766,689.368625 1103.51099,689.368625 1124.23358,705.378133 C1190.0997,756.263871 1178.45898,793.9651 1167.63358,832.778133 C1156.80817,871.591166 1130.27111,847.211326 1045.13358,857.978133 C1016.25903,861.629715 1000.22996,905.593024 979.333578,912.578133 C938.6163,926.188846 901.409046,900.468151 868.733578,870.578133 C811.428315,818.157909 828.423685,759.587946 853.333578,715.878133 Z" id="Path-2" stroke="#979797" stroke-width="1.4" fill="#6B8292"></path>
            <path d="M232.704332,677.72331 C235.463797,698.614093 240.123713,718.2 254.438758,718.2 C274.615303,718.2 289.163923,702.36929 301.68751,677.72331 C306.253111,668.738367 303.418186,656.815001 293.182735,641.953211 C279.68075,635.972767 265.821116,637.541631 251.603833,646.659803 C238.438168,655.103526 230.738922,662.843994 232.704332,677.72331 Z" id="Path-4" fill="#DBEBE6"></path>
            <path d="M0.204051059,773.685841 C6.23337296,819.498961 64.1908298,903 95.4686331,903 C139.553582,903 202.215909,874.19422 229.579449,820.146018 C239.555106,800.442196 223.069517,772.324233 180.122684,735.79213 C150.621382,722.67712 120.338633,726.117611 89.2744343,746.113603 C60.5079796,764.63054 -4.09029173,741.055763 0.204051059,773.685841 Z" id="Path-4" fill="#DBEBE6"></path>
        </g>
        <mask id="mask-2" fill="white">
            <use xlink:href="#path-1"></use>
        </mask>
        <use id="Path-3" fill="#F1C7A3" transform="translate(285.621419, 256.481918) rotate(-281.000000) translate(-285.621419, -256.481918) " xlink:href="#path-1"></use>
    </g>
</svg>