<?xml version="1.0" encoding="UTF-8"?>
<svg width="1024px" height="590px" viewBox="0 0 1024 590" version="1.1" xmlns="http://www.w3.org/2000/svg" xmlns:xlink="http://www.w3.org/1999/xlink">
    <!-- Generator: Sketch 58 (84663) - https://sketch.com -->
    <title>img header</title>
    <desc>Created with Sketch.</desc>
    <defs>
        <path d="M199.290422,64.9067172 C176.290453,94.3820795 186.002006,155.102596 177.272195,186.860242 C170.372243,211.961158 154.715052,237.681697 160.132221,261.260743 C167.348792,292.671957 177.599291,309.122379 207.224744,297.866887 C225.344055,290.982883 221.335179,255.464981 228.623443,202.376306 C231.305015,182.84339 236.938391,151.283381 242.54364,128.402103 C246.612651,111.791926 250.450933,93.5823189 248.482076,80.0425451 C245.764561,61.3542654 240.91937,53.7702465 233.996837,49.2162529 C226.076265,44.0056978 215.286835,44.4066869 199.290422,64.9067172 Z" id="path-1"></path>
    </defs>
    <g id="img-header" stroke="none" stroke-width="1" fill="none" fill-rule="evenodd">
        <g id="patterns" transform="translate(65.000000, -67.000000)">
            <path d="M547.437639,413.300016 C655.937639,479.300016 707.154271,375.283171 780.207639,347.300016 C853.261007,319.316862 884.550232,353.574874 904.207639,269.800016 C910.399466,243.412028 935.366073,220.356779 937.937639,194.300016 C943.530113,137.633473 920.472783,84.362679 912.937639,75.800016 C893.059678,53.211424 863.393012,37.0447573 823.937639,27.300016 C720.504564,-6.97607459 647.337897,-8.97607459 604.437639,21.300016 C561.537381,51.5761066 545.037381,112.576107 554.937639,204.300016 C477.604306,299.633349 475.104306,369.300016 547.437639,413.300016 Z" id="Path" fill="#E5BBA5"></path>
            <path d="M609.523985,511.341524 C624.162131,485.65572 656.995464,483.15572 708.023985,503.841524 C756.555469,492.406161 788.222136,492.406161 803.023985,503.841524 C850.071212,540.188479 841.756416,567.117929 834.023985,594.841524 C826.291553,622.565119 807.336509,605.150947 746.523985,612.841524 C725.89931,615.449796 714.449971,646.85216 699.523985,651.841524 C670.440214,661.563461 643.863604,643.191536 620.523985,621.841524 C579.591654,584.398506 591.731204,542.562818 609.523985,511.341524 Z" id="Path-2" stroke="#979797" fill="#6B8292"></path>
            <path d="M166.21738,484.088078 C168.188426,499.010066 171.516938,513 181.74197,513 C196.153788,513 206.54566,501.69235 215.491079,484.088078 C218.752222,477.670262 216.727276,469.153572 209.416239,458.538008 C199.771964,454.266262 189.872225,455.386879 179.717023,461.899859 C170.312977,467.93109 164.813515,473.459996 166.21738,484.088078 Z" id="Path-4" fill="#DBEBE6"></path>
            <path d="M0.145750756,552.632743 C4.45240925,585.356401 45.8505927,645 68.1918808,645 C99.68113,645 144.439935,624.424443 163.985321,585.818584 C171.11079,571.744426 159.335369,551.660167 128.65906,525.565807 C107.586702,516.197943 85.9561662,518.655436 63.767453,532.938288 C43.2199854,546.164672 -2.92163695,529.325545 0.145750756,552.632743 Z" id="Path-4" fill="#DBEBE6"></path>
        </g>
        <mask id="mask-2" fill="white">
            <use xlink:href="#path-1"></use>
        </mask>
        <use id="Path-3" fill="#F1C7A3" transform="translate(204.013871, 173.911370) rotate(-281.000000) translate(-204.013871, -173.911370) " xlink:href="#path-1"></use>
    </g>
</svg>