<?xml version="1.0" encoding="UTF-8"?>
<svg width="375px" height="371px" viewBox="0 0 375 371" version="1.1" xmlns="http://www.w3.org/2000/svg" xmlns:xlink="http://www.w3.org/1999/xlink">
    <!-- Generator: Sketch 58 (84663) - https://sketch.com -->
    <title>iPhone 8</title>
    <desc>Created with Sketch.</desc>
    <g id="iPhone-8" stroke="none" stroke-width="1" fill="none" fill-rule="evenodd">
        <g id="PATTERNS" transform="translate(157.000000, -10.000000)">
            <path d="M116.030169,265.697765 C172.993515,300.302294 199.882646,245.765113 238.236234,231.093236 C276.589821,216.421359 293.016908,234.383213 303.3372,190.459129 C306.587958,176.623616 319.695621,164.535494 321.045713,150.873645 C323.981805,121.16275 311.876527,93.2322847 307.920518,88.7427859 C297.484434,76.8993375 281.909202,68.4229756 261.194824,63.3137 C206.891654,45.342367 168.478583,44.2937449 145.955614,60.1678337 C123.432644,76.0419225 114.770015,108.024897 119.967728,156.116756 C79.367125,206.101076 78.0546055,242.628079 116.030169,265.697765 Z" id="Path" fill="#C27166" transform="translate(205.000000, 163.000000) rotate(-315.000000) translate(-205.000000, -163.000000) "></path>
            <path d="M0.10202553,279.34292 C3.11668648,302.249481 32.0954149,344 47.7343165,344 C69.776791,344 101.107954,329.59711 114.789724,302.573009 C119.777553,292.721098 111.534759,278.662117 90.0613418,260.396065 C75.3106912,253.83856 60.1693163,255.558806 44.6372171,265.556802 C30.2539898,274.81527 -2.04514587,263.027881 0.10202553,279.34292 Z" id="Path-4" fill="#B78B2A"></path>
            <path d="M3.15216582,195.161655 C4.53189844,205.607046 6.8618567,215.4 14.0193789,215.4 C24.1076514,215.4 31.3819617,207.484645 37.6437552,195.161655 C39.9265557,190.669183 38.5090931,184.7075 33.3913675,177.276606 C26.6403749,174.286383 19.7105578,175.070815 12.6019163,179.629902 C6.01908388,183.851763 2.16946081,187.721997 3.15216582,195.161655 Z" id="Path-4" fill="#E5BBA5"></path>
        </g>
    </g>
</svg>