<?xml version="1.0" encoding="UTF-8"?>
<svg width="1440px" height="1024px" viewBox="0 0 1440 1024" version="1.1" xmlns="http://www.w3.org/2000/svg" xmlns:xlink="http://www.w3.org/1999/xlink">
    <!-- Generator: Sketch 58 (84663) - https://sketch.com -->
    <title>Desktop HD Copy</title>
    <desc>Created with Sketch.</desc>
    <g id="Desktop-HD-Copy" stroke="none" stroke-width="1" fill="none" fill-rule="evenodd">
        <g id="PATTERNS" transform="translate(949.000000, 92.000000)">
            <path d="M232.060339,531.39553 C345.98703,600.604588 399.765292,491.530225 476.472467,462.186471 C553.179642,432.842717 586.033816,468.766426 606.6744,380.918259 C613.175915,353.247231 639.391241,329.070988 642.091426,301.74729 C647.963611,242.325501 623.753054,186.464569 615.841036,177.485572 C594.968867,153.798675 563.818405,136.845951 522.389649,126.6274 C413.783307,90.684734 336.957167,88.5874898 291.911227,120.335667 C246.865287,152.083845 229.54003,216.049793 239.935456,312.233511 C158.73425,412.202151 156.109211,485.256157 232.060339,531.39553 Z" id="Path" fill="#C27166" transform="translate(410.000000, 326.000000) rotate(-315.000000) translate(-410.000000, -326.000000) "></path>
            <path d="M0.204051059,558.685841 C6.23337296,604.498961 64.1908298,688 95.4686331,688 C139.553582,688 202.215909,659.19422 229.579449,605.146018 C239.555106,585.442196 223.069517,557.324233 180.122684,520.79213 C150.621382,507.67712 120.338633,511.117611 89.2744343,531.113603 C60.5079796,549.63054 -4.09029173,526.055763 0.204051059,558.685841 Z" id="Path-4" fill="#B78B2A"></path>
            <path d="M6.30433164,390.32331 C9.06379688,411.214093 13.7237134,430.8 28.0387578,430.8 C48.2153028,430.8 62.7639234,414.96929 75.2875104,390.32331 C79.8531114,381.338367 77.0181863,369.415001 66.7827349,354.553211 C53.2807497,348.572767 39.4211157,350.141631 25.2038327,359.259803 C12.0381678,367.703526 4.33892162,375.443994 6.30433164,390.32331 Z" id="Path-4" fill="#E5BBA5"></path>
        </g>
    </g>
</svg>